<?xml version="1.0" standalone="no"?>
<!DOCTYPE svg PUBLIC "-//W3C//DTD SVG 20010904//EN"
 "http://www.w3.org/TR/2001/REC-SVG-20010904/DTD/svg10.dtd">
<svg version="1.0" xmlns="http://www.w3.org/2000/svg"
 width="160.000000pt" height="160.000000pt" viewBox="0 0 160.000000 160.000000"
 preserveAspectRatio="xMidYMid meet">
<metadata>
Created by potrace 1.14, written by Peter Selinger 2001-2017
</metadata>
<g transform="translate(0.000000,160.000000) scale(0.100000,-0.100000)"
fill="#000000" stroke="none">
<path d="M867 1368 c-286 -33 -518 -269 -512 -520 0 -26 -4 -49 -10 -51 -34
-14 -180 -134 -214 -177 -57 -72 -85 -182 -51 -200 10 -5 20 -7 22 -4 3 3 23
-2 44 -10 88 -34 167 -48 277 -50 48 0 87 -5 87 -10 0 -4 17 -24 38 -43 43
-41 139 -89 197 -98 104 -18 167 -21 183 -11 7 4 12 2 12 -4 0 -6 3 -9 8 -6 4
2 28 7 52 11 139 20 203 39 295 90 175 97 239 221 238 465 0 222 -39 327 -167
455 -137 136 -293 187 -499 163z"/>
</g>
</svg>
